<svg width="960" height="540" viewBox="0 0 960 540" fill="none" xmlns="http://www.w3.org/2000/svg">
  <rect width="960" height="540" rx="48" fill="#F8FBFF"/>
  <ellipse cx="470" cy="418" rx="278" ry="30" fill="#D8E5F6"/>
  <path d="M214 336C214 296.235 246.235 264 286 264H582.5C612.42 264 640.968 276.778 661.023 299.117L709 352H236C223.85 352 214 342.15 214 330V336Z" fill="url(#paint0_linear_1_3)"/>
  <path d="M316 236H551C587.816 236 621.454 257.159 638.319 290.049L650 313H288L297.96 271.386C301.515 256.533 314.788 246 330.06 246H335L316 236Z" fill="#FFFFFF"/>
  <path d="M320 252H439L420 313H301L308.794 278.177C311.052 268.09 319.998 260.924 330.335 260.924H334L320 252Z" fill="#DCE7F5"/>
  <path d="M463 252H561C587.463 252 612.395 264.483 628.327 285.674L640 301H446L463 252Z" fill="#DCE7F5"/>
  <rect x="230" y="318" width="485" height="20" rx="10" fill="#2563EB"/>
  <circle cx="322" cy="368" r="50" fill="#0F172A"/>
  <circle cx="322" cy="368" r="27" fill="#EFF6FF"/>
  <circle cx="633" cy="368" r="50" fill="#0F172A"/>
  <circle cx="633" cy="368" r="27" fill="#EFF6FF"/>
  <rect x="178" y="90" width="192" height="48" rx="24" fill="#DBEAFE"/>
  <text x="274" y="120" text-anchor="middle" fill="#1D4ED8" font-family="Manrope, Arial, sans-serif" font-size="24" font-weight="700">MARUTI BALENO</text>
  <defs>
    <linearGradient id="paint0_linear_1_3" x1="214" y1="264" x2="709" y2="352" gradientUnits="userSpaceOnUse">
      <stop stop-color="#FFFFFF"/>
      <stop offset="1" stop-color="#E7F0FF"/>
    </linearGradient>
  </defs>
</svg>
